<svg width="80" height="80" viewBox="0 0 80 80" fill="none" xmlns="http://www.w3.org/2000/svg">
<path d="M40.0003 6.66663C21.6003 6.66663 6.66699 21.6 6.66699 40C6.66699 58.4 21.6003 73.3333 40.0003 73.3333C58.4003 73.3333 73.3337 58.4 73.3337 40C73.3337 21.6 58.4003 6.66663 40.0003 6.66663ZM40.0003 66.6666C25.3003 66.6666 13.3337 54.7 13.3337 40C13.3337 25.3 25.3003 13.3333 40.0003 13.3333C54.7003 13.3333 66.667 25.3 66.667 40C66.667 54.7 54.7003 66.6666 40.0003 66.6666ZM55.3003 25.2666L33.3337 47.2333L24.7003 38.6333L20.0003 43.3333L33.3337 56.6666L60.0003 30L55.3003 25.2666Z" fill="#64FA9D"/>
</svg>
